<svg id="Capa_1" enable-background="new 0 0 497 497" height="512" viewBox="0 0 497 497" width="512" xmlns="http://www.w3.org/2000/svg"><g><g><path d="m361.939 215.314c-10.384-66.745-63.954-99.132-124.406-111.792.008.004 1.516 3.638-.11-.271-4.36-.922-10.002-2.503-15.764-3.318-28.258-3.876-60.802-7.476-90.422.49-4.748 1.277-9.488 2.766-14.212 4.488.023-.004.047-.007.07-.011-7.358 2.789-13.767 5.424-22.129 10.116-33.621 18.889-57.173 50.392-60.023 94.087-.967 14.832-7.361 21.999-8.805 28.201-1.755 7.534 6.257 15.271 9.455 22.715 1.34 3.118 1.12 6.712-.542 9.67-6.592 11.735-14.865 19.717-24.761 27.336-5.766 4.439-10.165 8.406-10.15 15.317.018 8.062 5.065 13.328 15.897 16.659 20.751 6.382-4.337 22.649-4.337 22.649s-3.476 5.005 2.204 9.534c4.376 3.489 7.188 6.387 8.613 7.977.618.689.521 1.741-.187 2.336-4.088 3.438-5.008 6.953-4.869 9.666.134 2.616 1.911 4.859 4.393 5.697 1.882.636 4.38 1.662 6.551 3.165 2.067 1.431 3.341 4.826 1.907 7.389-2.66 4.755-6.287 10.45-3.814 20.498 3.814 15.493 16.813 21.224 29.853 23.359 9.15 1.498 28.095-1.678 47.373-4.29 34.045-4.614 49.69 23.491 59.722 47.676h-.002c.456 1.731 1.299 3.42 2.432 4.965 3.826 5.218 15.187 5.892 21.888 3.928l112.068-29.811c9.39-2.416 14.603-12.438 11.23-21.536-9.723-26.191-20.173-62.771-7.366-77.559.614-.677.12-.156 1.425-1.468 37.897-34.297 52.359-57.181 56.541-92.381 0 0-4.549-.012 0 0 1.655-17.077 3.168-35.922.277-55.481z" fill="#fed2a4"/><path d="m327.313 345.814c8.157-8.579 17.272-18.954 24.172-31.329 12.382-21.13 14.848-47.61 15.02-73.521-.119-14.095-1.068-28.112-5.594-42.987-7.362-24.661-23.094-47.157-45.334-63.784.002.003.004.005.007.008-22.778-17.323-50.958-28.581-79.695-34.598.008 0 .016.008.016.016-4.354-.924-11.108-2.157-16.873-2.968-30.358-4.168-62.629-4.216-94.381 5.692 25.371-4.857 50.75-4.143 74.921-.827 5.765.811 12.519 2.043 16.873 2.968 0-.008-.008-.016-.016-.016 60.448 12.657 118.447 48.48 128.833 115.228 1.289 8.741 1.784 17.546 1.784 26.133 0 10.638-.754 20.952-1.67 30.398-2.495 20.957-8.331 37.401-20.645 54.513-6.45 7.275-14.263 14.97-23.756 23.562-.489.464-.959.869-2.449 2.514-13.257 15.3-11.384 45.123 5.708 91.178.576 1.532.114 2.805-.211 3.43-.324.608-1.086 1.695-2.643 2.092l-135.5 36.105c3.097 4.224 8.368 7.379 13.817 7.379 1.281 0 2.57-.17 3.843-.543l120.871-31.16c9.389-2.416 14.603-12.438 11.23-21.536-9.722-26.19-20.733-64.186-7.93-78.975.081-.097.17-.186.251-.284 3.652-3.814 3.271-2.394 19.351-18.688z" fill="#ffbd86"/></g><g><path d="m262.187 285.793c-8.253-1.393-16.277.831-22.465 5.509-2.082-.955-4.352-1.607-6.771-1.876-11.133-1.238-21.641 6.347-23.959 17.306-2.607 12.324 5.578 24.218 17.874 26.294 2.459.415 4.89.403 7.221.022.347-.057.692.07.919.339 4.3 5.111 10.363 8.784 17.465 9.982 13.115 2.213 25.663-4.69 31.16-16.1 1.167-2.422-2.652-5.834-2.182-8.618 2.682-15.898-3.363-30.175-19.262-32.858z" fill="#dc4955"/><path d="m286.117 319.437c-.47 2.784-1.316 5.412-2.492 7.83-6.788 1.47-13.969 1.695-21.235.468-7.879-1.33-15.262-4.249-21.792-8.589-7.948 4.714-17.112 7.146-26.382 6.954-4.372-4.826-6.569-11.536-5.401-18.455 2.023-11.988 13.393-20.067 25.381-18.044 1.957.33 3.806.917 5.53 1.702 6.187-4.682 14.208-6.904 22.461-5.512 15.901 2.683 26.612 17.753 23.93 33.646z" fill="#d82f3c"/><path d="m220.711 373.638-14.98.382c-4.192-.707-5.929-1.671-7.494-5.624l-4.46-5.297-22.495-59.025 33.051-9.011 22.474 71.693c1.139 3.843-2.144 7.549-6.096 6.882z" fill="#df646e"/><path d="m222.706 375.922-17.523.078c-4.189-.707-7.706-3.551-9.27-7.51l-2.136-5.391 18.119.022c1.974.333 3.614-1.521 3.05-3.437l-18.675-62.425 10.259-2.796 22.277 74.576c1.135 3.841-2.143 7.55-6.101 6.883z" fill="#dc4955"/><path d="m307.502 250.067c-.65-1.094-.436-2.487.49-3.359 5.653-5.316 9.353-12.075 10.744-20.318 3.216-18.573-6.634-38.034-25.157-42.588-.493-.121-.991-.232-1.493-.333-.953-.191-1.728-.909-2.001-1.842-3.837-13.134-14.863-23.607-29.261-26.037-10.262-1.732-20.249.957-28.012 6.681-1.231.908-2.954.568-3.823-.69-6.447-9.335-16.512-16.157-28.582-18.194-15.545-2.623-30.552 3.341-40.176 14.441-.538.62-1.42.837-2.153.469-2.877-1.444-6.012-2.493-9.352-3.057-17.394-2.935-33.897 8.253-37.807 25.219-.163.707-.714 1.246-1.425 1.389-15.419 3.1-28.074 15.387-30.847 31.821-1.425 8.444-.021 16.708 3.513 23.836.296.597.245 1.296-.132 1.845-3.128 4.56-5.206 9.961-5.807 15.925-1.701 16.901 9.595 32.723 26.134 36.595 9.198 2.153 18.278.4 25.631-4.1 1.29-.79 2.951-3.424 4.126-4.376 1.016-.823 2.54-.307 2.861.961 2.611 10.32 10.995 18.735 22.167 20.621 3.181.537 6.326.506 9.333-.014.923-.16 1.862.178 2.471.89 3.199 3.741 7.851 5.996 13.085 6.879 6.559 1.107 12.455-.614 17.175-4.586.892-.75 2.144-.87 3.146-.276 3.155 1.872 6.851 3.842 10.686 4.489 10.96 1.85 21.331-1.128 28.108-8.96 1.924 1.887 4.024 3.608 6.287 5.123 5.458 3.653 11.168 3.385 18.205 4.411 21.575 3.145 42.345-10.627 47.073-31.912 2.528-11.389.263-21.742-5.207-30.953z" fill="#df646e"/><path d="m314.369 282.267c-5.152 21.805-26.395 36.303-48.586 33.217-6.81-.948-13.028-3.397-18.352-6.966 1.817.508 3.692.888 5.613 1.158 22.19 3.086 43.433-11.412 48.586-33.217 2.759-11.635.637-23.125-4.932-32.507-.649-1.088-.452-2.473.481-3.34 5.654-5.32 9.694-12.459 11.085-20.703 2.429-14.014-3.875-28.149-15.075-36.195 18.743 4.38 31.055 23.296 27.815 42.003-1.391 8.244-5.431 15.383-11.085 20.703-.933.867-1.13 2.252-.481 3.34 5.568 9.382 7.69 20.872 4.931 32.507z" fill="#dc4955"/><g><path d="m209.394 254.549c-3.684-.622-6.166-4.112-5.544-7.796 2.437-14.44 16.167-24.205 30.607-21.768 9.011 1.521 16.51 7.46 20.062 15.889 1.451 3.443-.163 7.409-3.606 8.86-3.442 1.451-7.409-.163-8.861-3.606-1.744-4.14-5.426-7.057-9.847-7.803-7.084-1.196-13.82 3.595-15.016 10.679-.621 3.685-4.111 6.167-7.795 5.545z" fill="#dc4955"/></g><path d="m248.3 283.378c-3.29-2.471-7.883-1.481-9.911 1.955-1.753 3.238-4.609 6.381-7.879 9.186-7.286 6.77-20.968 6.807-28.457 2.483-1.951-1.126-4.375-1.094-6.299.079-4.64 2.828-10.695 4.798-15.884 3.922-4.105-.693-8.976-2.712-11.931-5.715-1.536-1.561-3.787-2.16-5.921-1.666-2.06.477-3.614.5-7.103-.473-7.786-2.171-11.145-13.989-16.314-20.448-.626-1.136-1.692-2.038-3.105-2.395l-.072-.018c-5.077-1.241-8.521-5.929-8.207-11.153.184-2.878 1.47-5.514 3.631-7.427s4.937-2.862 7.817-2.687c.553.029 1.097.112 1.628.22 3.557.765 7.101-1.427 7.981-4.964 2.073-8.275 9.762-13.893 18.289-13.359 3.15.193 6.188 1.218 8.79 2.983 1.841 1.234 4.175 1.491 6.241.687 4.346-1.69 9.085-2.18 13.7-1.401 5.959 1.006 11.41 4.093 15.346 8.682 2.429 2.843 6.691 3.169 9.534.74 2.834-2.43 3.17-6.7.74-9.534-5.991-6.993-14.289-11.695-23.369-13.228-5.792-.977-11.708-.647-17.308.944-.212.06-.436.038-.633-.061-3.786-1.92-7.941-3.052-12.208-3.318-12.872-.792-24.666 6.362-30.081 17.594-.142.294-.428.484-.753.503-5.419.314-10.543 2.41-14.668 6.064-4.869 4.3-7.774 10.24-8.174 16.731-.604 9.705 4.583 18.594 12.85 22.98.271.144.448.412.471.718.147 1.949.466 3.879.941 5.764 1.289-.784 2.523-1.656 3.695-2.607 1.019-.826 2.547-.318 2.869.954 2.613 10.325 11.075 18.652 22.253 20.538 3.175.536 6.318.499 9.332-.017.923-.155 1.863.177 2.465.892 3.201 3.742 7.678 6.427 12.916 7.311 6.554 1.106 12.921-.847 17.644-4.824.885-.747 2.14-.865 3.138-.275 3.159 1.878 6.702 3.216 10.535 3.863 9.511 1.886 19.445-1.845 25.884-7.687 1.103-.994 2.112-2.066 3.025-3.185 3.127-3.038 5.873-6.467 8.123-10.219 1.813-3.022 1.255-7.017-1.561-9.132z" fill="#dc4955"/></g><g fill="#faf8f8"><path d="m275.743 102.904c0-7.32-1.023-13.578-7.089-16.751-2.63-1.375-5.621-2.153-8.794-2.153-10.493 0-19 8.507-19 19 0 .965.072 1.913.211 2.84 1.371 9.146 9.366 13.745 18.894 13.745 10.493 0 15.778-6.187 15.778-16.681z"/><circle cx="314.94" cy="192.92" r="25.92"/><path d="m480.679 131.755c0-8.362-1.096-14.981-7.581-19.277-3.795-2.514-8.345-3.978-13.238-3.978-13.255 0-24 10.745-24 24 0 2.076.264 4.091.759 6.013 2.669 10.345 14.115 15.455 25.294 15.455 13.255 0 18.766-8.958 18.766-22.213z"/><path d="m346.722 117.543c0-7.631-2.032-14.331-8.217-17.861-2.992-1.707-6.454-2.682-10.145-2.682-11.322 0-20.5 9.178-20.5 20.5 0 1.302.121 2.576.354 3.811 1.786 9.501 11.627 13.593 21.646 13.593 11.322 0 16.862-6.04 16.862-17.361z"/><path d="m405.871 165.968c0-7.631-1.18-13.757-7.366-17.286-2.991-1.707-6.454-2.682-10.145-2.682-11.322 0-20.5 9.178-20.5 20.5 0 1.302.121 2.576.354 3.811 1.786 9.501 12.829 12.689 22.848 12.689 11.322 0 14.809-5.71 14.809-17.032z"/><path d="m328.083 44.777c0-8.457-2.508-15.19-9.025-19.592-3.91-2.642-8.624-4.185-13.698-4.185-13.531 0-24.5 10.969-24.5 24.5 0 2.193.288 4.318.828 6.34 2.794 10.458 13.355 15.915 24.693 15.915 13.531 0 21.702-9.447 21.702-22.978z"/><path d="m495.615 22.734c0-7.767-2.69-14.848-8.675-18.891-3.591-2.426-7.92-3.843-12.58-3.843-12.426 0-22.5 10.074-22.5 22.5 0 1.747.199 3.448.576 5.081 2.303 9.979 12.841 15.579 23.52 15.579 12.426 0 19.659-8 19.659-20.426z"/><path d="m425.786 234.43c0-6.514-2.077-12.488-7.879-14.56-1.577-.563-3.276-.87-5.046-.87-8.284 0-15 6.716-15 15s8.237 13.585 16.521 13.585 11.404-4.871 11.404-13.155z"/><path d="m230.381 48.691c0-6.53-2.694-11.777-8.519-13.837-1.564-.553-3.248-.854-5.002-.854-8.284 0-15 6.716-15 15 0 .047 0 .093.001.14.075 8.22 7.858 12.998 16.095 12.998 8.284 0 12.425-5.162 12.425-13.447z"/><path d="m413.898 64.719c-1.079-1.079-1.517-2.958-2.724-3.806-10.084-7.089-24.103-6.125-33.118 2.89-6.888 6.888-9.076 16.696-6.563 25.439 1.169 4.07 5.554 7.242 8.76 10.448 10.094 10.094 23.268 8.712 33.362-1.381 10.094-10.094 10.377-23.496.283-33.59z"/><path d="m250.254 168c0-6.627-2.553-12.783-8.404-15-1.706-.646-3.557-1-5.49-1-8.56 0-15.5 6.94-15.5 15.5 0 .167.003.334.008.5.264 8.329 8.099 13.287 16.492 13.287 8.56 0 12.894-4.727 12.894-13.287z"/></g><path d="m278.86 103c0 10.49-8.51 19-19 19-9.52 0-17.42-7.01-18.79-16.16 2.63 1.38 5.62 2.16 8.79 2.16 10.49 0 19-8.51 19-19 0-.97-.07-1.91-.21-2.84 6.07 3.17 10.21 9.52 10.21 16.84z" fill="#f0e9e6"/><path d="m340.86 192.92c0 14.31-11.61 25.92-25.92 25.92-12.064 0-22.216-8.251-25.089-19.429 4.104 2.722 9.007 4.309 14.288 4.309 14.31 0 25.92-11.61 25.92-25.92 0-2.246-.281-4.417-.832-6.491 7.011 4.623 11.633 12.582 11.633 21.611z" fill="#f0e9e6"/><path d="m483.86 132.5c0 13.25-10.75 24-24 24-11.17 0-20.57-7.64-23.23-17.99 3.8 2.52 8.34 3.99 13.23 3.99 13.25 0 24-10.75 24-24 0-2.08-.26-4.09-.77-6.01 6.49 4.28 10.77 11.65 10.77 20.01z" fill="#f0e9e6"/><path d="m348.86 117.5c0 11.32-9.18 20.5-20.5 20.5-10.02 0-18.36-7.19-20.14-16.69 2.99 1.71 6.45 2.69 10.14 2.69 11.32 0 20.5-9.18 20.5-20.5 0-1.3-.12-2.58-.36-3.81 6.19 3.52 10.36 10.18 10.36 17.81z" fill="#f0e9e6"/><path d="m408.86 166.5c0 11.32-9.18 20.5-20.5 20.5-10.02 0-18.36-7.19-20.14-16.69 2.99 1.71 6.45 2.69 10.14 2.69 11.32 0 20.5-9.18 20.5-20.5 0-1.3-.12-2.58-.36-3.81 6.19 3.52 10.36 10.18 10.36 17.81z" fill="#f0e9e6"/><path d="m329.86 45.5c0 13.53-10.97 24.5-24.5 24.5-11.34 0-20.87-7.7-23.67-18.16 3.91 2.63 8.61 4.16 13.67 4.16 13.53 0 24.5-10.97 24.5-24.5 0-2.19-.29-4.32-.83-6.34 6.53 4.41 10.83 11.87 10.83 20.34z" fill="#f0e9e6"/><path d="m496.86 22.5c0 12.43-10.07 22.5-22.5 22.5-10.68 0-19.62-7.44-21.92-17.42 3.45 2.17 7.54 3.42 11.92 3.42 12.43 0 22.5-10.07 22.5-22.5 0-1.75-.2-3.45-.58-5.08 6.36 3.97 10.58 11.03 10.58 19.08z" fill="#f0e9e6"/><path d="m427.86 234c0 8.28-6.72 15-15 15-8.23 0-14.92-6.64-15-14.86 1.57.56 3.25.86 5 .86 8.28 0 15-6.72 15-15v-.14c5.82 2.05 10 7.61 10 14.14z" fill="#f0e9e6"/><path d="m231.86 49c0 8.28-6.72 15-15 15-8.23 0-14.92-6.64-15-14.86 1.57.56 3.25.86 5 .86 8.28 0 15-6.72 15-15v-.14c5.82 2.05 10 7.61 10 14.14z" fill="#f0e9e6"/><path d="m414.61 100.36c-10.09 10.09-26.46 10.09-36.55 0-3.21-3.21-5.4-7.05-6.56-11.12 10.08 7.09 24.1 6.13 33.11-2.88 6.88-6.89 9.07-16.7 6.56-25.44 1.21.84 2.36 1.8 3.44 2.88 10.09 10.1 10.09 26.46 0 36.56z" fill="#f0e9e6"/><path d="m251.86 167.5c0 8.56-6.94 15.5-15.5 15.5-8.39 0-15.23-6.67-15.49-15 1.71.65 3.56 1 5.49 1 8.56 0 15.5-6.94 15.5-15.5 0-.17 0-.33-.01-.5 5.85 2.22 10.01 7.87 10.01 14.5z" fill="#f0e9e6"/></g></svg>