<svg id="Capa_1" enable-background="new 0 0 497.019 497.019" height="512" viewBox="0 0 497.019 497.019" width="512" xmlns="http://www.w3.org/2000/svg"><g><path d="m468.797 149.617c-12.806-82.317-78.874-122.259-153.429-137.872.009.005 1.869 4.486-.136-.334-5.378-1.137-12.335-3.087-19.442-4.092-34.851-4.781-74.987-9.22-111.518.605-5.855 1.575-11.701 3.412-17.527 5.535.029-.005.058-.009.086-.014-9.074 3.44-16.979 6.689-27.292 12.476-41.465 23.295-70.511 62.148-74.025 116.037-1.193 18.292-9.078 27.131-10.859 34.78-2.164 9.292 7.716 18.834 11.661 28.014 1.652 3.845 1.382 8.277-.668 11.926-8.13 14.473-18.333 24.317-30.538 33.713-7.111 5.474-12.537 10.367-12.518 18.891.022 9.942 6.247 16.437 19.606 20.546 25.592 7.871-5.349 27.933-5.349 27.933s-4.287 6.173 2.719 11.758c5.397 4.303 8.865 7.876 10.622 9.837.762.85.643 2.147-.231 2.881-5.042 4.24-6.176 8.576-6.006 11.921.165 3.227 2.357 5.993 5.418 7.026 2.321.784 5.402 2.05 8.08 3.903 2.55 1.765 4.12 5.953 2.352 9.113-3.281 5.864-7.754 12.888-4.703 25.281 4.703 19.107 20.735 26.176 36.818 28.808 11.284 1.847 34.65-2.069 58.426-5.291 41.988-5.69 61.283 28.971 73.655 58.799l-.002.001c.562 2.135 1.602 4.218 2.999 6.123 4.719 6.435 18.73 7.266 26.994 4.844l138.212-36.765c11.58-2.98 18.01-15.34 13.85-26.56-11.991-32.302-24.879-77.415-9.084-95.653.757-.835.148-.192 1.757-1.811 46.739-42.298 64.574-70.522 69.732-113.934 0 .001-5.61-.014 0 .001 2.04-21.062 3.906-44.305.34-68.426z" fill="#fed2a4"/><path d="m426.093 310.561c10.06-10.581 21.301-23.376 29.811-38.638 15.271-26.059 18.312-58.717 18.524-90.674-.147-17.384-1.317-34.67-6.899-53.015-9.079-30.415-28.482-58.159-55.911-78.665.003.003.005.007.008.01-28.092-21.364-62.846-35.249-98.288-42.67.01 0 .02.01.02.02-5.37-1.14-13.7-2.66-20.81-3.66-37.44-5.14-77.24-5.2-116.4 7.02 31.29-5.99 62.59-5.11 92.4-1.02 7.11 1 15.44 2.52 20.81 3.66 0-.01-.01-.02-.02-.02 74.55 15.61 146.08 59.79 158.89 142.11 1.59 10.78 2.2 21.64 2.2 32.23 0 13.12-.93 25.84-2.06 37.49-3.077 25.846-10.275 46.127-25.461 67.231-7.954 8.972-17.591 18.462-29.299 29.059-.603.572-1.183 1.072-3.02 3.1-16.35 18.87-14.04 55.65 7.04 112.45.71 1.89.14 3.46-.26 4.23-.4.75-1.34 2.09-3.26 2.58l-167.11 44.53c3.82 5.21 10.32 9.1 17.04 9.1 1.58 0 3.17-.21 4.74-.67l149.07-38.43c11.58-2.98 18.01-15.34 13.85-26.56-11.99-32.3-25.57-79.16-9.78-97.4.1-.12.21-.23.31-.35 4.504-4.703 4.034-2.952 23.865-23.048z" fill="#ffbd86"/><g><path d="m410.925 185.964c-.815-1.7-.338-3.709 1.128-4.894 7.814-6.314 13.389-15.778 16.063-26.261 6.368-24.609-9.719-47.564-34.383-54.859-1.401-.414-2.464-1.558-2.765-2.987-3.674-17.44-12.67-32.09-31.107-36.793-10.674-2.723-21.422-3.556-30.829.453-2.094.892-4.121 1.93-6.065 3.104-1.888 1.14-4.367.547-5.478-1.359-7.427-12.745-19.761-22.621-35.184-26.555-19.609-5.002-39.436.819-53.175 13.712-1.302 1.222-3.23 1.428-4.78.543-3.31-1.89-6.924-3.374-10.797-4.362-22.089-5.634-44.531 6.77-51.794 27.965-.488 1.424-1.736 2.45-3.228 2.651-20.075 2.712-37.467 17.26-42.781 38.094-2.699 10.581-1.88 21.228 1.711 30.721.49 1.295.252 2.747-.602 3.837-9.705 12.382-13.286 30.405-4.72 50.829.153.366.363.716.613 1.024 23.642 29.113 58.224 24.366 74.709 3.076 1.658-2.141 4.889-2.081 6.447.134 11.027 15.671 27.484 27.637 47.507 32.744 1.355.346 2.711.653 4.066.927 1.029.208 1.925.804 2.533 1.66 6.393 8.995 15.885 15.859 27.415 18.8 14.185 3.618 28.502.545 39.625-7.234 1.646-1.151 3.854-.951 5.248.495 10.151 10.53 24.505 17.365 41.336 17.588 9.251.122 15.969-3.019 26.431-7.376.362-.151.707-.356 1.013-.601 27.938-22.437 32.777-52.263 21.843-75.076z" fill="#faf8f8"/></g><g><path d="m413.318 186.799c10.93 22.82 6.98 53.07-20.95 75.51-.31.24-.65.45-1.01.6-11.12 4.63-21.71 6.45-31.44 6.05 1.8-.6 3.61-1.29 5.44-2.05.36-.15.7-.36 1.01-.6 27.93-22.44 31.88-52.69 20.95-75.51-.82-1.7-.34-3.71 1.13-4.89 7.81-6.31 13.73-15.1 16.41-25.59 6.36-24.61-8.23-50.89-32.9-58.19-1.4-.41-2.46-1.55-2.76-2.98-3.68-17.44-16.9-32.17-35.33-36.88-1.99-.51-3.98-.88-5.96-1.13 9.67-4.43 20.86-5.7 31.96-2.87 18.43 4.71 31.65 19.44 35.33 36.88.3 1.43 1.36 2.57 2.76 2.98 24.67 7.3 39.26 33.58 32.9 58.19-2.68 10.49-8.6 19.28-16.41 25.59-1.47 1.18-1.95 3.19-1.13 4.89z" fill="#f0e9e6"/></g><path d="m169.218 277.335-7.889.349-2.238-.147c-2.983-.196-5.306-2.667-5.318-5.657l-.591-145.684c-.027-6.6 5.547-11.84 12.133-11.407l17.454 1.149 2.623 1.239c6.586.434 11.424 6.359 10.532 12.899l-20.691 142.349c-.405 2.962-3.032 5.106-6.015 4.91z" fill="#f5de46"/><path d="m196.928 129.079-19.7 144.34c-.4 2.97-3.03 5.11-6.01 4.92l-9.89-.65 21.44-161.75 3.62.24c6.59.43 11.43 6.36 10.54 12.9z" fill="#f3d332"/><g><path d="m181.819 334.7c.62-9.411-2.823-16.367-10.751-20.353-2.643-1.329-5.589-2.161-8.726-2.368-12.548-.826-23.391 8.676-24.217 21.224-.156 2.375.057 4.689.592 6.886 2.289 9.408 11.956 15.589 22.129 16.259 12.547.828 20.146-9.1 20.973-21.648z" fill="#f5de46"/><path d="m183.568 336.199c-.83 12.55-11.67 22.05-24.22 21.22-10.18-.67-18.35-7.92-20.63-17.33 2.61 1.31 5.53 2.13 8.63 2.33 12.55.83 23.39-8.67 24.22-21.22.16-2.38-.06-4.69-.59-6.89 7.98 3.97 13.21 12.44 12.59 21.89z" fill="#f3d332"/></g><g><path d="m254.392 314.582c.62-9.411-2.823-16.367-10.751-20.353-2.643-1.329-5.589-2.161-8.726-2.368-12.548-.826-23.391 8.676-24.217 21.224-.156 2.375.057 4.689.592 6.886 2.289 9.408 11.956 15.589 22.129 16.259 12.548.828 20.146-9.099 20.973-21.648z" fill="#f5de46"/><path d="m256.141 316.081c-.83 12.55-11.67 22.05-24.22 21.22-10.18-.67-18.35-7.92-20.63-17.33 2.61 1.31 5.53 2.13 8.63 2.33 12.55.83 23.39-8.67 24.22-21.22.16-2.38-.06-4.69-.59-6.89 7.98 3.97 13.21 12.44 12.59 21.89z" fill="#f3d332"/></g><g><path d="m297.717 379.125c.62-9.411-2.823-16.367-10.751-20.353-2.643-1.329-5.589-2.161-8.726-2.368-12.548-.826-23.391 8.676-24.217 21.224-.156 2.375.057 4.689.592 6.886 2.289 9.408 11.956 15.589 22.129 16.259 12.548.828 20.147-9.099 20.973-21.648z" fill="#f5de46"/><path d="m299.467 380.624c-.83 12.55-11.67 22.05-24.22 21.22-10.18-.67-18.35-7.92-20.63-17.33 2.61 1.31 5.53 2.13 8.63 2.33 12.55.83 23.39-8.67 24.22-21.22.16-2.38-.06-4.69-.59-6.89 7.98 3.97 13.21 12.44 12.59 21.89z" fill="#f3d332"/></g><path d="m251.422 258.874-5.745.102-4.059-.995c-2.904-.712-4.762-3.548-4.255-6.495l24.716-143.574c1.12-6.505 7.519-10.697 13.929-9.126l17.37 4.256 1.145 1.771c6.411 1.571 10.147 8.247 8.132 14.532l-44.458 135.736c-.912 2.848-3.872 4.504-6.775 3.793z" fill="#f5de46"/><path d="m304.658 118.349-44.46 138.73c-.91 2.85-3.87 4.51-6.78 3.79l-7.74-1.9 47.7-155.93 3.14.77c6.42 1.58 10.15 8.25 8.14 14.54z" fill="#f3d332"/><path d="m305.927 327.799-6.41-.847-4.696-2.086c-2.732-1.214-4.06-4.334-3.04-7.145l49.709-136.943c2.252-6.204 9.291-9.2 15.323-6.52l15.336 6.812.968 2.762c6.032 2.679 8.529 9.91 5.435 15.741l-65.285 125.691c-1.402 2.642-4.608 3.749-7.34 2.535z" fill="#f5de46"/><path d="m381.548 198.569-68.28 128.7c-1.4 2.64-4.61 3.74-7.34 2.53l-7.79-3.46 74.01-145.27 3.97 1.76c6.03 2.68 8.53 9.91 5.43 15.74z" fill="#f3d332"/></g></svg>