<svg id="Capa_1" enable-background="new 0 0 511.994 511.994" height="512" viewBox="0 0 511.994 511.994" width="512" xmlns="http://www.w3.org/2000/svg"><g><g><path d="m369.819 407.508-54.233-32.132-119.147-.284-20.655 6.256-17.085 68.968 46.795 54.181h101z" fill="#faf8f8"/><path d="m216.015 319.168-16.584 30.061-3.193 27.6c-1.222 10.483 1.64 21.107 8.261 29.326 8.401 10.427 23.807 21.344 51.495 21.344 27.685 0 43.091-10.914 51.492-21.34 3.429-4.255 5.849-9.156 7.217-14.348 1.274-4.839-5.118-11.659-5.709-16.718l.128-57.967z" fill="#f2d1a5"/><path d="m199.424 349.227 3.48-30.06 106.22-2.04 6.46 58.25 4.647 9.407-5.537 7.023-9.41-2.828c-5.741-1.271-5.156-9.233-5.8-13.642l-1.044-9.416c-.44-3.965-4.543-6.37-8.244-4.882-11.499 4.621-22.936 6.958-34.201 6.958-18.551 0-37.571-6.31-56.571-18.77z" fill="#f2bb88"/><path d="m308.214 497.527c15.297-29.171 22.318-66.508 25.506-92.192.54-4.35-2.144-8.448-6.341-9.711l-12.685-3.817c1.28-4.84 1.64-9.93 1.05-14.99l-.16-1.44 20.58 6.19 61.44 18.48c25.37 7.63 13.986 84.567 13.986 84.567l-90.096 19.883h-16.93z" fill="#f0e9e6"/><path d="m454.34 500.709c6.225 0 10.937-5.626 9.845-11.754l-11.489-36.255c-5.54-31.9-23.894-51.562-54.894-60.892l-30.128-7.789c-7.353-2.211-9.151-5.615-9.702 2.043-.14 1.95-7.538 3.534-7.734 5.787-2.378 27.268-9.212 75.401-28.745 112.65h127.09z" fill="#b3e59f"/><path d="m350.234 391.847 32.69 9.83c31 9.33 53.71 34.94 59.25 66.84l6.41 35.98h9.91c6.23 0 10.94-5.63 9.85-11.75l-7.17-40.23c-5.54-31.9-28.25-57.51-59.25-66.84l-35.76-10.75c-7.35-2.21-14.87 2.95-15.42 10.61-.14 1.95-.31 4.06-.51 6.31z" fill="#95d6a4"/><path d="m65.604 454.977 11.347 38.829 113.543 10.691h16.93l-3.65-6.97c-20.33-38.77-26.05-91.99-27.57-113.07-.08-1.05-.21-2.09-.42-3.11l-61.53 18.64c-25.3 7.67-44.12 28.94-48.65 54.99z" fill="#f0e9e6"/><path d="m53.492 504.497c-6.225 0-10.937-5.626-9.845-11.754l7.166-40.226c5.54-31.9 28.25-57.51 59.25-66.84l35.76-10.752c7.353-2.211 14.872 2.951 15.422 10.609 1.838 25.554 8.1 78.638 29.247 118.963z" fill="#b3e59f"/><path d="m376.203 188.411h6.696c16.016 0 29 13.028 29 29.1 0 22.168-17.909 40.138-40 40.138h-231c-22.091 0-40-17.97-40-40.138 0-16.071 12.984-29.1 29-29.1h6.696z" fill="#f2bb88"/><path d="m376.203 188.411c0 50.91-.983 67.633-21.693 96.41-28.566 39.692-64.15 66.65-98.111 66.65s-69.546-26.958-98.111-66.65c-17.3-24.038-20.835-39.665-21.529-73.834-.137-6.736 4.579-17.138 4.579-25.522l-16.84-113.872 263 35.234z" fill="#f2d1a5"/><g fill="#f2bb88"><path d="m131.437 72.527-6.17 6.54c1.95-2.35 4.01-4.52 6.17-6.54z"/><path d="m387.497 106.827-11.19 80.87c-4.83-12.31-13.85-23.8-25.29-31.28-37.69-24.63-77.33 8.86-138.02-45.05-.01 0-.02-.01-.02-.02-.89-.79-1.78-1.6-2.68-2.42-2.65-2.44-6.92-1.39-8.12 2.01-1.07 3.04-2.19 6-3.39 8.87-6.25 14.92-14.54 27.28-28.32 35.41-16.53 9.76-30.48 46.69-33.71 55.77-.13-6.74-.16-14.2-.16-22.58l-11.33-109.34 6.17-6.54z"/><path d="m131.437 72.527-6.17 6.54c1.95-2.35 4.01-4.52 6.17-6.54z"/></g><path d="m199.04 79.082c-1.806 5.684-2.101 18.578-4.255 23.724-6.244 14.918-14.542 27.284-28.319 35.412-18.893 11.148-29.872 50.193-29.872 50.193-24.696 0-35.696-36.895-35.696-62.214 0-59.049 36-89.307 73.362-89.022 4.566.035 9.252.619 14.009 2.024 2.598.767 5.648 4.03 8.281 5.33 2.2-2.332 4.055-6.795 6.421-8.888 21.597-19.109 49.831-28.307 79.816-28.141 12.403.068 23.085 3.668 35.742 6.902 90.947 23.237 107.214 151.279 57.214 169.309 0 0-.936-5.64-2.155-9.427-4.389-13.642-14.021-26.662-26.575-34.866-37.69-24.634-77.325 8.862-138.018-45.049-2.737-2.432-7.131-12.486-9.955-15.287z" fill="#7a6d79"/><path d="m376.207 188.407s-.08-1.19-.23-2.71c-.36-3.79-1.17-7.63-2.4-11.41 26.9-39.97 4.98-141.89-73.03-161.82-9.5-2.43-19.03-3.97-28.44-4.62 15.73-1.12 32.12.45 48.44 4.62 90.95 23.24 105.66 157.91 55.66 175.94z" fill="#685e68"/><g><path d="m208.997 94.367c-1.996-1.77-4.014-3.636-6.053-5.602-1.054-1.016-2.817-.58-3.277.81-1.517 4.587-3.118 9.01-4.881 13.232l-6.52-63.6c1.987.581 3.985 1.307 5.99 2.198 1.141.506 2.469.221 3.344-.669 1.741-1.772 3.534-3.473 5.376-5.089z" fill="#685e68"/></g></g><ellipse cx="208.899" cy="204.466" fill="#bae6ef" rx="16" ry="16.055"/><ellipse cx="303.899" cy="204.466" fill="#bae6ef" rx="16" ry="16.055"/><g><path d="m208.899 228.022c-12.958 0-23.5-10.567-23.5-23.555s10.542-23.555 23.5-23.555 23.5 10.567 23.5 23.555-10.542 23.555-23.5 23.555zm0-32.111c-4.687 0-8.5 3.838-8.5 8.555s3.813 8.555 8.5 8.555 8.5-3.838 8.5-8.555-3.813-8.555-8.5-8.555z" fill="#faf8f8"/></g><g><path d="m303.899 228.022c-12.958 0-23.5-10.567-23.5-23.555s10.542-23.555 23.5-23.555 23.5 10.567 23.5 23.555-10.542 23.555-23.5 23.555zm0-32.111c-4.687 0-8.5 3.838-8.5 8.555s3.813 8.555 8.5 8.555 8.5-3.838 8.5-8.555-3.813-8.555-8.5-8.555z" fill="#faf8f8"/></g><g><path d="m265.399 298.263h-18c-4.143 0-7.5-3.358-7.5-7.5s3.357-7.5 7.5-7.5h18c4.143 0 7.5 3.358 7.5 7.5s-3.357 7.5-7.5 7.5z" fill="#f2bb88"/></g><g><path d="m256.497 264.078c-4.871 0-9.743-.775-14.379-2.326-3.929-1.314-6.048-5.564-4.733-9.492 1.314-3.928 5.565-6.045 9.491-4.733 6.205 2.075 13.037 2.075 19.242 0 3.932-1.313 8.178.806 9.491 4.733 1.314 3.928-.805 8.178-4.733 9.492-4.636 1.55-9.508 2.326-14.379 2.326z" fill="#f2bb88"/></g><g><g><path d="m15.892 466.176c-2.47 0-4.888-1.219-6.32-3.452l-7.938-12.378c-2.67-4.16-2.01-9.656 1.572-13.066l7.163-6.821-3.198-9.379c-1.6-4.691.364-9.872 4.67-12.32l8.575-4.88-.856-9.872c-.427-4.938 2.721-9.496 7.484-10.839l9.479-2.674 1.512-9.781c.755-4.9 4.899-8.579 9.854-8.745l9.833-.333 3.789-9.127c1.904-4.588 6.81-7.176 11.669-6.143l9.625 2.039 5.861-7.94c2.953-4.001 8.339-5.327 12.812-3.154l8.849 4.304 9.381-7.787c3.185-2.646 7.914-2.207 10.561.98 2.646 3.187 2.207 7.916-.98 10.562l-11.704 9.716c-3.11 2.581-7.467 3.106-11.099 1.34l-8.062-3.92-5.338 7.231c-2.393 3.245-6.489 4.807-10.438 3.969l-8.771-1.858-3.454 8.319c-1.547 3.727-5.151 6.224-9.182 6.361l-8.974.304-1.379 8.922c-.614 3.984-3.519 7.268-7.398 8.364l-8.653 2.441.781 9.004c.348 4.01-1.686 7.886-5.181 9.875l-7.825 4.453 2.917 8.552c1.297 3.804.256 8.052-2.653 10.823l-6.538 6.225 5.861 9.139c2.236 3.487 1.222 8.126-2.265 10.362-1.253.8-2.657 1.184-4.042 1.184z" fill="#f0e9e6"/></g><g><path d="m496.134 466.192c-1.387 0-2.788-.384-4.042-1.188-3.486-2.236-4.501-6.875-2.265-10.362l5.863-9.143-6.486-6.176c-2.942-2.802-3.997-7.099-2.685-10.946l2.895-8.486-7.763-4.417c-3.539-2.015-5.595-5.937-5.24-9.993l.775-8.929-8.584-2.422c-3.922-1.105-6.859-4.425-7.483-8.457l-1.37-8.855-8.902-.301c-4.074-.137-7.721-2.662-9.286-6.432l-3.427-8.254-8.702 1.844c-3.988.842-8.13-.73-10.554-4.01l-5.299-7.179-7.997 3.89c-3.676 1.788-8.082 1.255-11.228-1.357l-11.647-9.67c-3.188-2.646-3.626-7.374-.98-10.561 2.646-3.188 7.375-3.625 10.561-.98l9.385 7.79 8.765-4.263c4.522-2.198 9.971-.856 12.957 3.189l5.806 7.867 9.537-2.02c4.919-1.046 9.874 1.572 11.8 6.212l3.754 9.042 9.745.33c5.007.168 9.197 3.889 9.962 8.847l1.498 9.688 9.393 2.65c4.816 1.358 8 5.967 7.567 10.958l-.849 9.783 8.498 4.835c4.354 2.48 6.338 7.72 4.719 12.461l-3.168 9.29 7.098 6.757c3.622 3.446 4.291 9.005 1.588 13.216l-7.887 12.299c-1.435 2.234-3.853 3.453-6.322 3.453z" fill="#f0e9e6"/></g></g></g></svg>