<svg id="Capa_1" enable-background="new 0 0 497.337 497.337" height="512" viewBox="0 0 497.337 497.337" width="512" xmlns="http://www.w3.org/2000/svg"><g><g><path d="m424.935 426.828-39.185-23.094-85.97-.007-14.893 4.548-12.213 49.793 33.855 39.016 72.876-.169z" fill="#faf8f8"/><path d="m313.812 363.343-11.916 21.718-2.258 19.92c-.864 7.566 1.218 15.227 6.009 21.146 6.079 7.51 17.214 15.361 37.192 15.315 19.976-.046 31.074-7.947 37.118-15.484 2.467-3.076 4.205-6.616 5.183-10.364.912-3.494-3.712-8.404-4.147-12.053l-.004-41.826z" fill="#f2d1a5"/><path d="m301.89 385.06 2.461-21.695 76.639-1.649 4.758 42.019 3.369 6.78-3.984 5.076-6.794-2.025c-4.145-.908-3.735-6.653-4.208-9.833l-.769-6.793c-.324-2.86-3.289-4.589-5.957-3.509-8.289 3.354-16.538 5.059-24.666 5.078-13.384.031-27.118-4.491-40.849-13.449z" fill="#f2bb88"/><path d="m380.634 491.883c10.989-21.074 15.993-48.026 18.251-66.563.382-3.139-1.561-6.092-4.592-6.997l-9.159-2.733c.915-3.494 1.167-7.168.733-10.818l-.118-1.039 14.86 4.432 44.362 13.232c18.318 5.463 10.232 60.995 10.232 60.995l-64.975 14.496-12.216.028z" fill="#f0e9e6"/><path d="m486.076 493.936c4.491-.01 7.882-4.077 7.084-8.497l-8.35-26.141c-4.05-23.008-17.326-37.165-39.709-43.845l-21.751-5.57c-5.309-1.583-6.612-4.037-6.997 1.49-.098 1.407-5.433 2.562-5.571 4.188-1.67 19.679-6.521 54.421-20.553 81.329l91.701-.211z" fill="#f5de46"/><path d="m410.777 415.561 23.604 7.038c22.383 6.68 38.812 25.121 42.863 48.129l4.685 25.95 7.15-.017c4.495-.01 7.884-4.081 7.088-8.495l-5.24-29.016c-4.05-23.008-20.479-41.449-42.863-48.129l-25.82-7.697c-5.307-1.582-10.724 2.153-11.109 7.681-.098 1.409-.217 2.932-.358 4.556z" fill="#f3d332"/><path d="m205.51 461.586 8.252 27.998 81.944 7.525 12.216-.028-2.645-5.023c-14.734-27.94-18.949-66.331-20.081-81.539-.059-.758-.155-1.508-.308-2.243l-44.366 13.552c-18.243 5.575-31.787 20.954-35.012 39.758z" fill="#f0e9e6"/><path d="m196.853 497.337c-4.491.01-7.901-4.041-7.123-8.465l5.104-29.037c3.944-23.026 20.288-41.543 42.64-48.327l25.785-7.818c5.302-1.607 10.735 2.104 11.146 7.629 1.369 18.435 5.976 56.727 21.301 85.788z" fill="#f5de46"/><path d="m429.177 268.73 4.831-.011c11.556-.027 20.946 9.352 20.973 20.949.037 15.995-12.855 28.991-28.795 29.028l-166.677.384c-15.94.037-28.892-12.9-28.929-28.895-.027-11.596 9.32-21.018 20.876-21.045l4.831-.011z" fill="#f2bb88"/><path d="m429.177 268.73c.085 36.734-.596 48.801-15.492 69.6-20.545 28.687-46.176 48.198-70.681 48.254-24.505.057-50.225-19.336-70.902-47.928-12.523-17.316-15.099-28.586-15.657-53.239-.11-4.86 3.276-12.374 3.262-18.423l-12.341-82.136 189.825 24.985z" fill="#f2d1a5"/><path d="m437.19 209.845-7.939 58.37c-3.506-8.874-10.033-17.15-18.3-22.528-27.236-17.709-55.782 6.522-99.662-32.276-.007 0-.014-.007-.014-.014-.643-.569-1.287-1.151-1.938-1.742-1.916-1.756-4.995-.991-5.856 1.464-.767 2.195-1.57 4.333-2.431 6.406-4.485 10.776-10.446 19.708-20.375 25.597-11.911 7.07-21.915 33.74-24.23 40.297-.105-4.863-.139-10.246-.153-16.292l-8.357-78.875 4.441-4.729z" fill="#f2bb88"/><path d="m301.164 190.139c-1.293 4.104-1.485 13.409-3.03 17.125-4.481 10.774-10.448 19.71-20.374 25.598-13.614 8.075-21.47 36.266-21.47 36.266-17.819.041-25.817-26.562-25.86-44.831-.098-42.606 25.827-64.499 52.786-64.355 3.295.018 6.677.431 10.111 1.437 1.876.549 4.082 2.899 5.984 3.832 1.584-1.686 2.915-4.91 4.618-6.424 15.552-13.824 35.908-20.507 57.544-20.438 8.949.029 16.663 2.608 25.801 4.921 65.661 16.615 77.611 108.976 41.564 122.068 0 0-.685-4.068-1.57-6.798-3.19-9.836-10.161-19.214-19.233-25.113-27.236-17.712-55.778 6.523-99.661-32.275-1.98-1.75-5.167-8.997-7.21-11.013z" fill="#7a6d79"/><path d="m429.18 268.727s-.06-.859-.17-1.955c-.266-2.734-.857-5.503-1.751-8.229 19.343-28.885 3.357-102.388-52.964-116.639-6.859-1.738-13.738-2.833-20.528-3.286 11.348-.834 23.177.271 34.959 3.253 65.663 16.617 76.501 113.763 40.454 126.856z" fill="#685e68"/><g><path d="m308.374 201.151c-1.443-1.274-2.902-2.617-4.377-4.032-.762-.731-2.033-.414-2.363.59-1.087 3.312-2.235 6.506-3.5 9.556l-4.81-45.879c1.434.416 2.877.937 4.326 1.576.824.364 1.782.156 2.411-.488 1.253-1.281 2.544-2.512 3.87-3.681z" fill="#685e68"/></g></g><path d="m313.983 0h-222.359c-50.021 0-90.571 40.55-90.571 90.57 0 29.316 13.929 55.38 35.529 71.933 15.255 11.69 36.5 14.869 57.205 14.869l217.106-.255c50.021 0 90.757-36.526 90.757-86.546 0-30.114-11.794-56.795-34.406-73.262-14.947-10.887-33.354-17.309-53.261-17.309z" fill="#faf8f8"/><path d="m378.023 26.53c-3.34-3.34-6.95-6.43-10.78-9.22 10.875 14.93 17.293 33.3 17.31 53.178.044 49.861-41.782 90.652-91.644 90.652h-142.717c-.86 0-1.688-.288-2.384-.793-7.244-5.249-16.144-8.347-25.754-8.347-9.611 0-18.509 3.099-25.753 8.347-.696.504-1.525.793-2.384.793h-59.054c12.903 10.394 28.718 17.306 46.023 19.352-.001.003-.002.005-.003.008.795.007 1.531.452 10.74.64h71.84 149.363c49.814 0 91.172-39.738 91.721-89.549.281-25.414-9.911-48.448-26.524-65.061z" fill="#f0e9e6"/><path d="m143.915 197.01c0-9.829-3.77-19.287-12.228-22.998-2.949-1.294-6.207-2.012-9.634-2.012-13.255 0-24 10.745-24 24 0 2.799.479 5.486 1.36 7.984 3.29 9.33 12.869 13.304 23.325 13.304 13.255-.001 21.177-7.023 21.177-20.278z" fill="#faf8f8"/><path d="m146.053 196c0 13.25-10.75 24-24 24-10.45 0-19.35-6.69-22.63-16.02 2.95 1.3 6.21 2.02 9.63 2.02 13.25 0 24-10.75 24-24 0-2.8-.48-5.48-1.37-7.98 8.46 3.71 14.37 12.16 14.37 21.98z" fill="#f0e9e6"/><path d="m196.617 226.521c0-6.928-3.26-13.28-9.643-15.004-1.25-.337-2.564-.518-3.921-.518-8.284 0-15 6.716-15 15 0 .5.024.994.072 1.481.744 7.589 8.324 12.445 16.109 12.445 8.284.001 12.383-5.119 12.383-13.404z" fill="#faf8f8"/><path d="m198.053 226c0 8.28-6.72 15-15 15-7.78 0-14.18-5.93-14.92-13.52 1.25.34 2.56.52 3.92.52 8.28 0 15-6.72 15-15 0-.5-.02-1-.08-1.48 6.38 1.72 11.08 7.56 11.08 14.48z" fill="#f0e9e6"/><g><g><path d="m373.053 293.5c-4.143 0-7.5-3.358-7.5-7.5v-13c0-4.142 3.357-7.5 7.5-7.5s7.5 3.358 7.5 7.5v13c0 4.142-3.357 7.5-7.5 7.5z" fill="#f2bb88"/></g><g><path d="m313.053 293.5c-4.143 0-7.5-3.358-7.5-7.5v-13c0-4.142 3.357-7.5 7.5-7.5s7.5 3.358 7.5 7.5v13c0 4.142-3.357 7.5-7.5 7.5z" fill="#f2bb88"/></g><g><path d="m332.348 355.903c-1.934 0-3.866-.743-5.333-2.227-2.913-2.945-2.886-7.694.06-10.606 5.025-4.968 11.197-8.84 17.851-11.198 6.903-2.446 14.402-3.295 21.682-2.461 4.115.473 7.068 4.192 6.596 8.307s-4.203 7.067-8.307 6.595c-3.506-.402-8.945-.435-14.96 1.697-4.589 1.626-8.848 4.297-12.314 7.726-1.463 1.446-3.37 2.167-5.275 2.167z" fill="#f2bb88"/></g><g><path d="m343.212 315.728c-4.086 0-8.173-1.162-11.66-3.487-3.446-2.298-4.378-6.954-2.08-10.401 2.298-3.445 6.952-4.376 10.4-2.081 1.905 1.27 4.777 1.27 6.679 0 3.449-2.297 8.104-1.365 10.401 2.08 2.298 3.446 1.367 8.103-2.079 10.401-3.487 2.325-7.574 3.488-11.661 3.488z" fill="#f2bb88"/></g></g><g><path d="m148.925 158.005c-1.432 0-2.877-.063-4.338-.189-14.752-1.281-28.354-9.062-33.847-19.36-.674-1.264-1.289-2.557-1.845-3.87-5.058-1.055-9.831-2.614-14.266-4.673-14.44-6.707-24.433-18.373-28.136-32.85-1.013-3.958-1.489-7.927-1.458-11.841-4.9-2.996-8.813-7.419-11.285-12.844-3.686-8.093-3.889-17.704-.556-26.371 1.486-3.866 5.822-5.798 9.692-4.308 3.866 1.487 5.795 5.826 4.308 9.692-1.896 4.933-1.821 10.315.207 14.768.287.631.649 1.315 1.103 2.012 4.228-10.259 12.195-19.311 23.229-25.699 13.868-8.03 32.739-11.332 50.526-5.144 7.977-8.806 19.922-13.948 34.345-14.647 21.467-1.051 44.177 8.167 55.193 22.396 1.696 2.192 3.135 4.392 4.351 6.59 3.976-2.06 8.166-3.841 12.622-5.267 13.998-4.479 26.006-6.292 36.253-6.338-1.963-2.701-4.144-5.383-6.537-8.034-2.776-3.074-2.535-7.817.538-10.593 3.074-2.775 7.817-2.536 10.593.539 5.921 6.555 10.743 13.359 14.448 20.287 13.784 3.473 22.686 10.409 27.939 16.013 13.413 14.31 17.951 35.314 11.291 52.267-6.31 16.06-18.849 28.307-35.31 34.484-16.094 6.041-33.65 5.367-48.412-1.813-12.236 3.16-25.137 2.953-37.13-1.199-12.486-4.322-22.51-11.146-31.265-18.324-.463 5.94-2.04 11.524-5.423 15.854-9.378 12.007-22.333 18.462-36.83 18.462zm-20.67-21.807c4.1 3.248 10.364 6.043 17.63 6.674 7.787.678 18.983-.954 28.053-12.563 1.535-1.965 2.317-5.005 2.487-8.748-8.107 5.392-17.063 9.668-27.406 11.967-7.168 1.592-14.12 2.48-20.764 2.67zm152.511-2.328c7.233.762 14.77-.193 21.951-2.889 12.43-4.666 21.884-13.873 26.619-25.926 3.692-9.4 2.679-24.839-8.274-36.524-2.826-3.015-6.092-5.528-9.756-7.533 4.316 17.878 1.346 35.82-9.198 51.75-5.711 8.627-13.059 15.754-21.342 21.122zm-86.184-27c9.477 8.364 19.625 16.418 32.771 20.969 4.363 1.51 8.934 2.311 13.56 2.456-13.594-13.625-13.39-28.934-13.203-42.832.056-4.207.109-8.216-.174-12.091-7.059 5.75-13.689 12.422-20.502 19.275-4.077 4.102-8.19 8.239-12.452 12.223zm46.768-40.979c1.547 7.541 1.449 14.897 1.356 21.772-.216 16.142-.376 28.093 18.321 39.272 11.289-4.14 21.591-11.921 28.571-22.468 9.924-14.992 11.231-31.991 4.247-48.875-11.591-1.45-25.285.225-40.502 5.093-4.231 1.355-8.206 3.118-11.993 5.206zm-120.829 55.231c7.424.498 15.836-.147 25.244-2.237 9.728-2.162 18.121-6.586 25.899-12.293-13.397-11.372-24.509-17.139-43.143-7.617-3.467 1.772-5.92 4.884-7.29 9.248-1.228 3.914-1.44 8.415-.71 12.899zm-40.151-30.97c.163 1.048.381 2.113.656 3.192 2.703 10.565 10.797 19.99 24.116 24.721-.221-4.942.361-9.821 1.778-14.335 2.583-8.229 7.692-14.491 14.775-18.111 19.409-9.92 33.939-7.301 46.458-.029-4.112-9.887-9.276-18.813-14.366-23.765-2.165-2.106-4.423-3.919-6.749-5.462-9.359 12.876-21.208 22.676-34.581 28.541-10.858 4.762-21.933 6.535-32.087 5.248zm76.047-45.57c2.689 1.879 5.309 4.037 7.832 6.492 8.41 8.183 17.274 24.725 22.583 42.144.026.085.052.171.078.258 3.165-3.044 6.307-6.205 9.484-9.402 8.481-8.534 17.129-17.233 27.006-24.446-.94-1.798-2.081-3.585-3.462-5.368-8.068-10.422-25.984-17.404-42.605-16.596-5.375.26-14.116 1.58-20.916 6.918zm-74.61 30.608c15.239 2.087 35.63-5.455 51.044-24.937-12.015-2.766-24.294-.187-33.601 5.2-7.28 4.214-14.254 11.006-17.443 19.737z" fill="#bae6ef"/></g></g></svg>